<mxfile host="app.diagrams.net" modified="2022-08-26T15:16:51.647Z" agent="5.0 (Windows NT 10.0; Win64; x64) AppleWebKit/537.36 (KHTML, like Gecko) Chrome/103.0.5060.134 Safari/537.36 OPR/89.0.4447.83" etag="X4BFkREx6pYr9-1VL7Ju" version="20.2.7" type="github">
  <diagram id="CFNRWCM8x2PWsgi7f_gd" name="Page-1">
    <mxGraphModel dx="1643" dy="704" grid="1" gridSize="10" guides="1" tooltips="1" connect="1" arrows="1" fold="1" page="1" pageScale="1" pageWidth="850" pageHeight="1100" math="0" shadow="0">
      <root>
        <mxCell id="0" />
        <mxCell id="1" parent="0" />
        <mxCell id="zyh0JKEbAlSyDnryhz_2-1" value="&lt;u&gt;&lt;font style=&quot;font-size: 14px;&quot;&gt;name&lt;/font&gt;&lt;/u&gt;" style="rounded=0;whiteSpace=wrap;html=1;align=center;" vertex="1" parent="1">
          <mxGeometry x="10" y="60" width="90" height="30" as="geometry" />
        </mxCell>
        <mxCell id="zyh0JKEbAlSyDnryhz_2-4" value="&lt;font style=&quot;font-size: 14px;&quot;&gt;address&lt;/font&gt;" style="rounded=0;whiteSpace=wrap;html=1;" vertex="1" parent="1">
          <mxGeometry x="100" y="60" width="70" height="30" as="geometry" />
        </mxCell>
        <mxCell id="zyh0JKEbAlSyDnryhz_2-5" value="&lt;b&gt;&lt;font style=&quot;font-size: 18px;&quot;&gt;branch&lt;/font&gt;&lt;/b&gt;" style="text;html=1;strokeColor=none;fillColor=none;align=center;verticalAlign=middle;whiteSpace=wrap;rounded=0;" vertex="1" parent="1">
          <mxGeometry x="10" y="30" width="60" height="30" as="geometry" />
        </mxCell>
        <mxCell id="zyh0JKEbAlSyDnryhz_2-6" value="&lt;u&gt;&lt;font style=&quot;font-size: 14px;&quot;&gt;isbn&lt;/font&gt;&lt;/u&gt;" style="rounded=0;whiteSpace=wrap;html=1;" vertex="1" parent="1">
          <mxGeometry x="10" y="190" width="70" height="30" as="geometry" />
        </mxCell>
        <mxCell id="zyh0JKEbAlSyDnryhz_2-7" value="&lt;font style=&quot;font-size: 14px;&quot;&gt;title&lt;/font&gt;" style="rounded=0;whiteSpace=wrap;html=1;" vertex="1" parent="1">
          <mxGeometry x="80" y="190" width="40" height="30" as="geometry" />
        </mxCell>
        <mxCell id="zyh0JKEbAlSyDnryhz_2-8" value="&lt;span style=&quot;font-size: 18px;&quot;&gt;&lt;b&gt;book&lt;/b&gt;&lt;/span&gt;" style="text;html=1;strokeColor=none;fillColor=none;align=left;verticalAlign=middle;whiteSpace=wrap;rounded=0;" vertex="1" parent="1">
          <mxGeometry x="10" y="160" width="60" height="30" as="geometry" />
        </mxCell>
        <mxCell id="zyh0JKEbAlSyDnryhz_2-9" value="&lt;u&gt;&lt;font style=&quot;font-size: 14px;&quot;&gt;username&lt;/font&gt;&lt;/u&gt;" style="rounded=0;whiteSpace=wrap;html=1;" vertex="1" parent="1">
          <mxGeometry x="10" y="310" width="70" height="30" as="geometry" />
        </mxCell>
        <mxCell id="zyh0JKEbAlSyDnryhz_2-10" value="&lt;font style=&quot;font-size: 14px;&quot;&gt;password&lt;/font&gt;" style="rounded=0;whiteSpace=wrap;html=1;" vertex="1" parent="1">
          <mxGeometry x="80" y="310" width="70" height="30" as="geometry" />
        </mxCell>
        <mxCell id="zyh0JKEbAlSyDnryhz_2-11" value="&lt;span style=&quot;font-size: 18px;&quot;&gt;&lt;b&gt;member&lt;/b&gt;&lt;/span&gt;" style="text;html=1;strokeColor=none;fillColor=none;align=left;verticalAlign=middle;whiteSpace=wrap;rounded=0;" vertex="1" parent="1">
          <mxGeometry x="10" y="280" width="60" height="30" as="geometry" />
        </mxCell>
        <mxCell id="zyh0JKEbAlSyDnryhz_2-14" value="&lt;span style=&quot;font-size: 18px;&quot;&gt;&lt;b&gt;admin&lt;/b&gt;&lt;/span&gt;" style="text;html=1;strokeColor=none;fillColor=none;align=left;verticalAlign=middle;whiteSpace=wrap;rounded=0;" vertex="1" parent="1">
          <mxGeometry x="10" y="400" width="60" height="30" as="geometry" />
        </mxCell>
        <mxCell id="zyh0JKEbAlSyDnryhz_2-71" style="edgeStyle=orthogonalEdgeStyle;rounded=0;orthogonalLoop=1;jettySize=auto;html=1;entryX=0.25;entryY=1;entryDx=0;entryDy=0;fontSize=14;" edge="1" parent="1" source="zyh0JKEbAlSyDnryhz_2-16" target="zyh0JKEbAlSyDnryhz_2-6">
          <mxGeometry relative="1" as="geometry">
            <Array as="points">
              <mxPoint x="145" y="620" />
              <mxPoint x="780" y="620" />
              <mxPoint x="780" y="260" />
              <mxPoint x="28" y="260" />
            </Array>
          </mxGeometry>
        </mxCell>
        <mxCell id="zyh0JKEbAlSyDnryhz_2-16" value="&lt;u&gt;&lt;font style=&quot;font-size: 14px;&quot;&gt;book_isbn&lt;/font&gt;&lt;/u&gt;" style="rounded=0;whiteSpace=wrap;html=1;" vertex="1" parent="1">
          <mxGeometry x="110" y="580" width="70" height="30" as="geometry" />
        </mxCell>
        <mxCell id="zyh0JKEbAlSyDnryhz_2-17" value="&lt;span style=&quot;font-size: 18px;&quot;&gt;&lt;b&gt;keeps&lt;/b&gt;&lt;/span&gt;" style="text;html=1;strokeColor=none;fillColor=none;align=left;verticalAlign=middle;whiteSpace=wrap;rounded=0;" vertex="1" parent="1">
          <mxGeometry x="10" y="550" width="60" height="30" as="geometry" />
        </mxCell>
        <mxCell id="zyh0JKEbAlSyDnryhz_2-74" style="edgeStyle=orthogonalEdgeStyle;rounded=0;orthogonalLoop=1;jettySize=auto;html=1;entryX=0.5;entryY=1;entryDx=0;entryDy=0;fontSize=14;" edge="1" parent="1" source="zyh0JKEbAlSyDnryhz_2-19" target="zyh0JKEbAlSyDnryhz_2-6">
          <mxGeometry relative="1" as="geometry">
            <Array as="points">
              <mxPoint x="145" y="740" />
              <mxPoint x="790" y="740" />
              <mxPoint x="790" y="250" />
              <mxPoint x="45" y="250" />
            </Array>
          </mxGeometry>
        </mxCell>
        <mxCell id="zyh0JKEbAlSyDnryhz_2-19" value="&lt;u&gt;&lt;font style=&quot;font-size: 14px;&quot;&gt;book_isbn&lt;/font&gt;&lt;/u&gt;" style="rounded=0;whiteSpace=wrap;html=1;" vertex="1" parent="1">
          <mxGeometry x="110" y="680" width="70" height="30" as="geometry" />
        </mxCell>
        <mxCell id="zyh0JKEbAlSyDnryhz_2-20" value="&lt;span style=&quot;font-size: 18px;&quot;&gt;&lt;b&gt;loans&lt;/b&gt;&lt;/span&gt;" style="text;html=1;strokeColor=none;fillColor=none;align=left;verticalAlign=middle;whiteSpace=wrap;rounded=0;" vertex="1" parent="1">
          <mxGeometry x="10" y="650" width="60" height="30" as="geometry" />
        </mxCell>
        <mxCell id="zyh0JKEbAlSyDnryhz_2-21" value="&lt;u&gt;&lt;font style=&quot;font-size: 14px;&quot;&gt;phone&lt;/font&gt;&lt;/u&gt;" style="rounded=0;whiteSpace=wrap;html=1;" vertex="1" parent="1">
          <mxGeometry x="10" y="800" width="70" height="30" as="geometry" />
        </mxCell>
        <mxCell id="zyh0JKEbAlSyDnryhz_2-76" style="edgeStyle=orthogonalEdgeStyle;rounded=0;orthogonalLoop=1;jettySize=auto;html=1;fontSize=14;entryX=0.75;entryY=1;entryDx=0;entryDy=0;" edge="1" parent="1" source="zyh0JKEbAlSyDnryhz_2-22" target="zyh0JKEbAlSyDnryhz_2-1">
          <mxGeometry relative="1" as="geometry">
            <mxPoint x="70" y="90" as="targetPoint" />
            <Array as="points">
              <mxPoint x="130" y="850" />
              <mxPoint x="740" y="850" />
              <mxPoint x="740" y="120" />
              <mxPoint x="78" y="120" />
            </Array>
          </mxGeometry>
        </mxCell>
        <mxCell id="zyh0JKEbAlSyDnryhz_2-22" value="&lt;u&gt;&lt;font style=&quot;font-size: 14px;&quot;&gt;branch_name&lt;/font&gt;&lt;/u&gt;" style="rounded=0;whiteSpace=wrap;html=1;" vertex="1" parent="1">
          <mxGeometry x="80" y="800" width="100" height="30" as="geometry" />
        </mxCell>
        <mxCell id="zyh0JKEbAlSyDnryhz_2-23" value="&lt;span style=&quot;font-size: 18px;&quot;&gt;&lt;b&gt;branch_phone&lt;/b&gt;&lt;/span&gt;" style="text;html=1;strokeColor=none;fillColor=none;align=left;verticalAlign=middle;whiteSpace=wrap;rounded=0;" vertex="1" parent="1">
          <mxGeometry x="10" y="770" width="60" height="30" as="geometry" />
        </mxCell>
        <mxCell id="zyh0JKEbAlSyDnryhz_2-24" value="&lt;font style=&quot;font-size: 14px;&quot;&gt;username&lt;/font&gt;" style="rounded=0;whiteSpace=wrap;html=1;" vertex="1" parent="1">
          <mxGeometry x="10" y="920" width="70" height="30" as="geometry" />
        </mxCell>
        <mxCell id="zyh0JKEbAlSyDnryhz_2-25" value="&lt;font style=&quot;font-size: 14px;&quot;&gt;isbn&lt;/font&gt;" style="rounded=0;whiteSpace=wrap;html=1;" vertex="1" parent="1">
          <mxGeometry x="80" y="920" width="70" height="30" as="geometry" />
        </mxCell>
        <mxCell id="zyh0JKEbAlSyDnryhz_2-26" value="&lt;span style=&quot;font-size: 18px;&quot;&gt;&lt;b&gt;review&lt;/b&gt;&lt;/span&gt;" style="text;html=1;strokeColor=none;fillColor=none;align=left;verticalAlign=middle;whiteSpace=wrap;rounded=0;" vertex="1" parent="1">
          <mxGeometry x="10" y="890" width="60" height="30" as="geometry" />
        </mxCell>
        <mxCell id="zyh0JKEbAlSyDnryhz_2-27" value="&lt;font style=&quot;font-size: 14px;&quot;&gt;isbn&lt;/font&gt;" style="rounded=0;whiteSpace=wrap;html=1;" vertex="1" parent="1">
          <mxGeometry x="10" y="1010" width="40" height="30" as="geometry" />
        </mxCell>
        <mxCell id="zyh0JKEbAlSyDnryhz_2-28" value="&lt;font style=&quot;font-size: 14px;&quot;&gt;username&lt;/font&gt;" style="rounded=0;whiteSpace=wrap;html=1;" vertex="1" parent="1">
          <mxGeometry x="50" y="1010" width="70" height="30" as="geometry" />
        </mxCell>
        <mxCell id="zyh0JKEbAlSyDnryhz_2-29" value="&lt;span style=&quot;font-size: 18px;&quot;&gt;&lt;b&gt;wishlist&lt;/b&gt;&lt;/span&gt;" style="text;html=1;strokeColor=none;fillColor=none;align=left;verticalAlign=middle;whiteSpace=wrap;rounded=0;" vertex="1" parent="1">
          <mxGeometry x="10" y="980" width="60" height="30" as="geometry" />
        </mxCell>
        <mxCell id="zyh0JKEbAlSyDnryhz_2-75" style="edgeStyle=orthogonalEdgeStyle;rounded=0;orthogonalLoop=1;jettySize=auto;html=1;entryX=0.5;entryY=1;entryDx=0;entryDy=0;fontSize=14;" edge="1" parent="1" source="zyh0JKEbAlSyDnryhz_2-30" target="zyh0JKEbAlSyDnryhz_2-9">
          <mxGeometry relative="1" as="geometry">
            <Array as="points">
              <mxPoint x="245" y="730" />
              <mxPoint x="820" y="730" />
              <mxPoint x="820" y="370" />
              <mxPoint x="45" y="370" />
            </Array>
          </mxGeometry>
        </mxCell>
        <mxCell id="zyh0JKEbAlSyDnryhz_2-30" value="&lt;u&gt;&lt;font style=&quot;font-size: 14px;&quot;&gt;member_username&lt;/font&gt;&lt;/u&gt;" style="rounded=0;whiteSpace=wrap;html=1;" vertex="1" parent="1">
          <mxGeometry x="180" y="680" width="130" height="30" as="geometry" />
        </mxCell>
        <mxCell id="zyh0JKEbAlSyDnryhz_2-70" style="edgeStyle=orthogonalEdgeStyle;rounded=0;orthogonalLoop=1;jettySize=auto;html=1;fontSize=14;" edge="1" parent="1" source="zyh0JKEbAlSyDnryhz_2-32" target="zyh0JKEbAlSyDnryhz_2-1">
          <mxGeometry relative="1" as="geometry">
            <mxPoint x="45" y="100" as="targetPoint" />
            <Array as="points">
              <mxPoint x="60" y="640" />
              <mxPoint x="720" y="640" />
              <mxPoint x="720" y="140" />
              <mxPoint x="45" y="140" />
            </Array>
          </mxGeometry>
        </mxCell>
        <mxCell id="zyh0JKEbAlSyDnryhz_2-32" value="&lt;u&gt;&lt;font style=&quot;font-size: 14px;&quot;&gt;branch_name&lt;/font&gt;&lt;/u&gt;" style="rounded=0;whiteSpace=wrap;html=1;" vertex="1" parent="1">
          <mxGeometry x="10" y="580" width="100" height="30" as="geometry" />
        </mxCell>
        <mxCell id="zyh0JKEbAlSyDnryhz_2-73" style="edgeStyle=orthogonalEdgeStyle;rounded=0;orthogonalLoop=1;jettySize=auto;html=1;fontSize=14;" edge="1" parent="1" source="zyh0JKEbAlSyDnryhz_2-33">
          <mxGeometry relative="1" as="geometry">
            <mxPoint x="60" y="90" as="targetPoint" />
            <Array as="points">
              <mxPoint x="60" y="760" />
              <mxPoint x="730" y="760" />
              <mxPoint x="730" y="130" />
              <mxPoint x="60" y="130" />
            </Array>
          </mxGeometry>
        </mxCell>
        <mxCell id="zyh0JKEbAlSyDnryhz_2-33" value="&lt;u&gt;&lt;font style=&quot;font-size: 14px;&quot;&gt;branch_name&lt;/font&gt;&lt;/u&gt;" style="rounded=0;whiteSpace=wrap;html=1;" vertex="1" parent="1">
          <mxGeometry x="10" y="680" width="100" height="30" as="geometry" />
        </mxCell>
        <mxCell id="zyh0JKEbAlSyDnryhz_2-35" value="&lt;font style=&quot;font-size: 14px;&quot;&gt;author&lt;/font&gt;" style="rounded=0;whiteSpace=wrap;html=1;" vertex="1" parent="1">
          <mxGeometry x="120" y="190" width="50" height="30" as="geometry" />
        </mxCell>
        <mxCell id="zyh0JKEbAlSyDnryhz_2-36" value="&lt;font style=&quot;font-size: 14px;&quot;&gt;genre&lt;/font&gt;" style="rounded=0;whiteSpace=wrap;html=1;" vertex="1" parent="1">
          <mxGeometry x="170" y="190" width="50" height="30" as="geometry" />
        </mxCell>
        <mxCell id="zyh0JKEbAlSyDnryhz_2-37" value="&lt;font style=&quot;font-size: 14px;&quot;&gt;publisher&lt;/font&gt;" style="rounded=0;whiteSpace=wrap;html=1;" vertex="1" parent="1">
          <mxGeometry x="220" y="190" width="70" height="30" as="geometry" />
        </mxCell>
        <mxCell id="zyh0JKEbAlSyDnryhz_2-38" value="&lt;font style=&quot;font-size: 14px;&quot;&gt;cover&lt;/font&gt;" style="rounded=0;whiteSpace=wrap;html=1;" vertex="1" parent="1">
          <mxGeometry x="290" y="190" width="50" height="30" as="geometry" />
        </mxCell>
        <mxCell id="zyh0JKEbAlSyDnryhz_2-39" value="&lt;font style=&quot;font-size: 14px;&quot;&gt;first_name&lt;/font&gt;" style="rounded=0;whiteSpace=wrap;html=1;" vertex="1" parent="1">
          <mxGeometry x="150" y="310" width="80" height="30" as="geometry" />
        </mxCell>
        <mxCell id="zyh0JKEbAlSyDnryhz_2-40" value="&lt;font style=&quot;font-size: 14px;&quot;&gt;middle_name&lt;/font&gt;" style="rounded=0;whiteSpace=wrap;html=1;" vertex="1" parent="1">
          <mxGeometry x="230" y="310" width="100" height="30" as="geometry" />
        </mxCell>
        <mxCell id="zyh0JKEbAlSyDnryhz_2-41" value="&lt;font style=&quot;font-size: 14px;&quot;&gt;last_name&lt;/font&gt;" style="rounded=0;whiteSpace=wrap;html=1;" vertex="1" parent="1">
          <mxGeometry x="330" y="310" width="80" height="30" as="geometry" />
        </mxCell>
        <mxCell id="zyh0JKEbAlSyDnryhz_2-42" value="&lt;font style=&quot;font-size: 14px;&quot;&gt;dob&lt;/font&gt;" style="rounded=0;whiteSpace=wrap;html=1;" vertex="1" parent="1">
          <mxGeometry x="405" y="310" width="40" height="30" as="geometry" />
        </mxCell>
        <mxCell id="zyh0JKEbAlSyDnryhz_2-43" value="&lt;font style=&quot;font-size: 14px;&quot;&gt;gender&lt;/font&gt;" style="rounded=0;whiteSpace=wrap;html=1;" vertex="1" parent="1">
          <mxGeometry x="445" y="310" width="50" height="30" as="geometry" />
        </mxCell>
        <mxCell id="zyh0JKEbAlSyDnryhz_2-44" value="&lt;font style=&quot;font-size: 14px;&quot;&gt;email&lt;/font&gt;" style="rounded=0;whiteSpace=wrap;html=1;" vertex="1" parent="1">
          <mxGeometry x="495" y="310" width="40" height="30" as="geometry" />
        </mxCell>
        <mxCell id="zyh0JKEbAlSyDnryhz_2-45" value="&lt;font style=&quot;font-size: 14px;&quot;&gt;phone&lt;/font&gt;" style="rounded=0;whiteSpace=wrap;html=1;" vertex="1" parent="1">
          <mxGeometry x="535" y="310" width="50" height="30" as="geometry" />
        </mxCell>
        <mxCell id="zyh0JKEbAlSyDnryhz_2-46" value="&lt;font style=&quot;font-size: 14px;&quot;&gt;address&lt;/font&gt;" style="rounded=0;whiteSpace=wrap;html=1;" vertex="1" parent="1">
          <mxGeometry x="585" y="310" width="60" height="30" as="geometry" />
        </mxCell>
        <mxCell id="zyh0JKEbAlSyDnryhz_2-47" value="&lt;font style=&quot;font-size: 14px;&quot;&gt;photo&lt;/font&gt;" style="rounded=0;whiteSpace=wrap;html=1;" vertex="1" parent="1">
          <mxGeometry x="645" y="310" width="50" height="30" as="geometry" />
        </mxCell>
        <mxCell id="zyh0JKEbAlSyDnryhz_2-49" value="&lt;u&gt;&lt;font style=&quot;font-size: 14px;&quot;&gt;username&lt;/font&gt;&lt;/u&gt;" style="rounded=0;whiteSpace=wrap;html=1;" vertex="1" parent="1">
          <mxGeometry x="10" y="430" width="70" height="30" as="geometry" />
        </mxCell>
        <mxCell id="zyh0JKEbAlSyDnryhz_2-50" value="&lt;font style=&quot;font-size: 14px;&quot;&gt;password&lt;/font&gt;" style="rounded=0;whiteSpace=wrap;html=1;" vertex="1" parent="1">
          <mxGeometry x="80" y="430" width="70" height="30" as="geometry" />
        </mxCell>
        <mxCell id="zyh0JKEbAlSyDnryhz_2-51" value="&lt;font style=&quot;font-size: 14px;&quot;&gt;first_name&lt;/font&gt;" style="rounded=0;whiteSpace=wrap;html=1;" vertex="1" parent="1">
          <mxGeometry x="150" y="430" width="80" height="30" as="geometry" />
        </mxCell>
        <mxCell id="zyh0JKEbAlSyDnryhz_2-52" value="&lt;font style=&quot;font-size: 14px;&quot;&gt;middle_name&lt;/font&gt;" style="rounded=0;whiteSpace=wrap;html=1;" vertex="1" parent="1">
          <mxGeometry x="230" y="430" width="100" height="30" as="geometry" />
        </mxCell>
        <mxCell id="zyh0JKEbAlSyDnryhz_2-53" value="&lt;font style=&quot;font-size: 14px;&quot;&gt;last_name&lt;/font&gt;" style="rounded=0;whiteSpace=wrap;html=1;" vertex="1" parent="1">
          <mxGeometry x="330" y="430" width="80" height="30" as="geometry" />
        </mxCell>
        <mxCell id="zyh0JKEbAlSyDnryhz_2-54" value="&lt;font style=&quot;font-size: 14px;&quot;&gt;dob&lt;/font&gt;" style="rounded=0;whiteSpace=wrap;html=1;" vertex="1" parent="1">
          <mxGeometry x="405" y="430" width="40" height="30" as="geometry" />
        </mxCell>
        <mxCell id="zyh0JKEbAlSyDnryhz_2-55" value="&lt;font style=&quot;font-size: 14px;&quot;&gt;gender&lt;/font&gt;" style="rounded=0;whiteSpace=wrap;html=1;" vertex="1" parent="1">
          <mxGeometry x="445" y="430" width="50" height="30" as="geometry" />
        </mxCell>
        <mxCell id="zyh0JKEbAlSyDnryhz_2-56" value="&lt;font style=&quot;font-size: 14px;&quot;&gt;email&lt;/font&gt;" style="rounded=0;whiteSpace=wrap;html=1;" vertex="1" parent="1">
          <mxGeometry x="495" y="430" width="40" height="30" as="geometry" />
        </mxCell>
        <mxCell id="zyh0JKEbAlSyDnryhz_2-57" value="&lt;font style=&quot;font-size: 14px;&quot;&gt;phone&lt;/font&gt;" style="rounded=0;whiteSpace=wrap;html=1;" vertex="1" parent="1">
          <mxGeometry x="535" y="430" width="50" height="30" as="geometry" />
        </mxCell>
        <mxCell id="zyh0JKEbAlSyDnryhz_2-58" value="&lt;font style=&quot;font-size: 14px;&quot;&gt;address&lt;/font&gt;" style="rounded=0;whiteSpace=wrap;html=1;" vertex="1" parent="1">
          <mxGeometry x="10" y="490" width="60" height="30" as="geometry" />
        </mxCell>
        <mxCell id="zyh0JKEbAlSyDnryhz_2-59" value="&lt;font style=&quot;font-size: 14px;&quot;&gt;photo&lt;/font&gt;" style="rounded=0;whiteSpace=wrap;html=1;" vertex="1" parent="1">
          <mxGeometry x="70" y="490" width="50" height="30" as="geometry" />
        </mxCell>
        <mxCell id="zyh0JKEbAlSyDnryhz_2-60" value="&lt;font style=&quot;font-size: 14px;&quot;&gt;start_date&lt;/font&gt;" style="rounded=0;whiteSpace=wrap;html=1;" vertex="1" parent="1">
          <mxGeometry x="120" y="490" width="70" height="30" as="geometry" />
        </mxCell>
        <mxCell id="zyh0JKEbAlSyDnryhz_2-61" value="&lt;font style=&quot;font-size: 14px;&quot;&gt;no_of_copies&lt;/font&gt;" style="rounded=0;whiteSpace=wrap;html=1;" vertex="1" parent="1">
          <mxGeometry x="180" y="580" width="100" height="30" as="geometry" />
        </mxCell>
        <mxCell id="zyh0JKEbAlSyDnryhz_2-62" value="&lt;font style=&quot;font-size: 14px;&quot;&gt;return_date&lt;/font&gt;" style="rounded=0;whiteSpace=wrap;html=1;" vertex="1" parent="1">
          <mxGeometry x="390" y="680" width="80" height="30" as="geometry" />
        </mxCell>
        <mxCell id="zyh0JKEbAlSyDnryhz_2-63" value="&lt;font style=&quot;font-size: 14px;&quot;&gt;borrow_date&lt;/font&gt;" style="rounded=0;whiteSpace=wrap;html=1;" vertex="1" parent="1">
          <mxGeometry x="310" y="680" width="80" height="30" as="geometry" />
        </mxCell>
        <mxCell id="zyh0JKEbAlSyDnryhz_2-68" style="edgeStyle=orthogonalEdgeStyle;rounded=0;orthogonalLoop=1;jettySize=auto;html=1;fontSize=14;" edge="1" parent="1" source="zyh0JKEbAlSyDnryhz_2-66" target="zyh0JKEbAlSyDnryhz_2-1">
          <mxGeometry relative="1" as="geometry">
            <mxPoint x="28" y="100" as="targetPoint" />
            <Array as="points">
              <mxPoint x="635" y="480" />
              <mxPoint x="710" y="480" />
              <mxPoint x="710" y="150" />
              <mxPoint x="28" y="150" />
            </Array>
          </mxGeometry>
        </mxCell>
        <mxCell id="zyh0JKEbAlSyDnryhz_2-66" value="&lt;u&gt;&lt;font style=&quot;font-size: 14px;&quot;&gt;branch_name&lt;/font&gt;&lt;/u&gt;" style="rounded=0;whiteSpace=wrap;html=1;" vertex="1" parent="1">
          <mxGeometry x="585" y="430" width="100" height="30" as="geometry" />
        </mxCell>
      </root>
    </mxGraphModel>
  </diagram>
</mxfile>
